# xmcd
#
# Track frame offsets:
#	150
#	9506
#	21132
#	33454
#	52038
#	65942
#	76509
#	87912
#	98899
#	112099
#	125430
#	139177
#	147358
#	159549
#	171967
#	182758
#	192887
#	202747
#	212657
#	222688
#	234734
#	243040
#	251856
#	260877
#	270763
#	280308
#	293352
#	305631
#	315595
#	326304
#	337988
#
# Disc length: 4613 seconds
#
# Revision: 0
# Processed by: cddbd v1.5.2PL0 Copyright (c) Steve Scherf et al.
# Submitted via: EasyCDDAExtractor 15.3.0.1
#
DISCID=c912031f
DTITLE=Slim Whitman - I'm A Lonely Wanderer
DYEAR=1900
DGENRE=Country
TTITLE0=Rainbow On The Rio Colorado
TTITLE1=My Wild Irish Rose
TTITLE2=Forty Shades Of Green
TTITLE3=Eileen
TTITLE4=Galway Bay
TTITLE5=Dora My Darling
TTITLE6=I'll Take You Home Again Kathleen
TTITLE7=Too Ra Loo Ra Loo Ra
TTITLE8=Gortnamana
TTITLE9=Stone Outside Don Murphy's Door
TTITLE10=Londonderry Air
TTITLE11=Peggy Oneil
TTITLE12=Where The River Shannon Flows
TTITLE13=Maria Elena (1964 Uniss.)
TTITLE14=Maria Elena
TTITLE15=Tell Me Pretty Words
TTITLE16=Rose Marie
TTITLE17=Only You (And You Alone) (1964 Uniss.)
TTITLE18=Only You (And You Alone)
TTITLE19=It Keeps Right On A-Hurtin'
TTITLE20=You're The Reason
TTITLE21=Ramblin' Rose
TTITLE22=Little Bitty Tear
TTITLE23=Born To Lose
TTITLE24=From A Jack To A King
TTITLE25=I'll Hold You In My Heart
TTITLE26=I Fall To Pieces
TTITLE27=I Can't Stop Loving You
TTITLE28=No Other Arms No Other Lips
TTITLE29=Bouquet Of Roses
TTITLE30=Give Me A Hundred Reasons
EXTD=
EXTT0=
EXTT1=
EXTT2=
EXTT3=
EXTT4=
EXTT5=
EXTT6=
EXTT7=
EXTT8=
EXTT9=
EXTT10=
EXTT11=
EXTT12=
EXTT13=
EXTT14=
EXTT15=
EXTT16=
EXTT17=
EXTT18=
EXTT19=
EXTT20=
EXTT21=
EXTT22=
EXTT23=
EXTT24=
EXTT25=
EXTT26=
EXTT27=
EXTT28=
EXTT29=
EXTT30=
PLAYORDER=
